# xmcd CD database file
#
# Track frame offsets:
#	150
#	14764
#	28481
#	44295
#	59481
#	71925
#	80630
#	94127
#	108705
#	123257
#	134656
#	149138
#	160096
#	174304
#	186177
#	199084
#	212289
#
# Disc length: 3035 seconds
#
# Revision: 0
# Processed by: cddbd v1.5.1PL0 Copyright (c) Steve Scherf et al.
# Submitted via: CDex 1.51
#
DISCID=0b0bd911
DTITLE=Sarah Vaughan - Great Divas
DYEAR=1900
DGENRE=Blues
TTITLE0=It Might As Well Be Spring
TTITLE1=Ain't Misbehavin
TTITLE2=Goodnight My Love
TTITLE3=The Nearness Of You
TTITLE4=Pinky
TTITLE5=Ooh What 'Cha Doin To Me
TTITLE6=Don't Worry 'Bout Me
TTITLE7=Penthouse Seranade
TTITLE8=Don't Blame Me
TTITLE9=I Can't Get Started
TTITLE10=The One I Love Belongs To Somebody Else
TTITLE11=I'm Gonna Sit Right Down And Write Myself A Letter
TTITLE12=East Of The Sun, West Of the Moon
TTITLE13=Nice If You Can Get It
TTITLE14=Can't Get Out Of This Mood
TTITLE15=Mean To Me
TTITLE16=Come Rain Or Come Shine
EXTD=
EXTT0=
EXTT1=
EXTT2=
EXTT3=
EXTT4=
EXTT5=
EXTT6=
EXTT7=
EXTT8=
EXTT9=
EXTT10=
EXTT11=
EXTT12=
EXTT13=
EXTT14=
EXTT15=
EXTT16=
PLAYORDER=
